<svg xmlns="http://www.w3.org/2000/svg" version="1.0" width="116.000000pt" height="61.000000pt" viewBox="0 0 116.000000 61.000000" preserveAspectRatio="xMidYMid meet">
<metadata fill="#607d8b">
Created by potrace 1.16, written by Peter Selinger 2001-2019
</metadata>
<g transform="translate(0.000000,61.000000) scale(0.100000,-0.100000)" fill="#607d8b" stroke="none">
<path d="M325 580 c-10 -11 -35 -27 -56 -36 -37 -17 -37 -17 -16 -34 l21 -17 -68 -179 c-37 -99 -78 -197 -91 -220 -25 -43 -63 -74 -90 -74 -8 0 -15 -4 -15 -10 0 -6 42 -10 105 -10 58 0 105 4 105 8 0 4 -13 13 -30 19 -41 15 -48 51 -23 127 l19 61 107 3 107 3 25 -58 c14 -32 31 -71 38 -87 l13 -28 27 41 c15 23 39 47 52 53 30 14 31 22 5 34 -19 9 -16 18 64 179 l85 170 0 -228 1 -228 -25 -24 c-13 -14 -36 -25 -50 -25 -15 0 -24 -4 -20 -10 8 -13 302 -13 310 0 4 6 -5 10 -20 10 -14 0 -37 11 -50 25 -23 22 -25 31 -25 128 l0 104 93 6 c116 8 159 20 195 57 73 73 31 194 -76 217 -20 4 -102 8 -182 8 l-145 0 -92 -185 -92 -185 -28 65 c-16 36 -56 127 -88 203 -33 75 -62 137 -66 137 -3 0 -14 -9 -24 -20z m665 -49 c53 -37 62 -145 17 -197 -23 -26 -77 -43 -139 -44 l-38 0 0 113 c0 96 3 116 18 129 34 31 97 31 142 -1z m-646 -174 c25 -60 43 -113 40 -118 -8 -14 -184 -11 -184 2 0 26 84 239 91 232 4 -4 28 -57 53 -116z" fill="#607d8b"/>
</g>
</svg>